<svg width="16" height="17" viewBox="0 0 16 17" fill="none" xmlns="http://www.w3.org/2000/svg">
<path d="M8.01439 2.375C8.15306 1.83794 8.46639 1.36225 8.90507 1.02281C9.34374 0.683364 9.88285 0.499444 10.4375 0.500001H10.5C10.6326 0.500001 10.7598 0.55268 10.8536 0.646448C10.9473 0.740216 11 0.867393 11 1C11 1.13261 10.9473 1.25979 10.8536 1.35355C10.7598 1.44732 10.6326 1.5 10.5 1.5H10.4375C10.105 1.49997 9.7818 1.61046 9.51888 1.81411C9.25595 2.01775 9.06816 2.303 8.98502 2.625C8.95187 2.75347 8.86904 2.8635 8.75476 2.93089C8.64048 2.99829 8.50411 3.01753 8.37564 2.98438C8.24718 2.95122 8.13715 2.8684 8.06975 2.75412C8.00235 2.63984 7.98312 2.50347 8.01627 2.375H8.01439ZM13.9563 11.0994C13.9188 11.0137 13.8582 10.9401 13.7813 10.8869C12.7206 10.1581 12.5 8.915 12.5 8C12.5 6.89563 13.3419 5.93375 13.8438 5.45813C13.8931 5.4114 13.9325 5.3551 13.9593 5.29267C13.9862 5.23023 14.0001 5.16297 14.0001 5.095C14.0001 5.02703 13.9862 4.95977 13.9593 4.89734C13.9325 4.8349 13.8931 4.7786 13.8438 4.73188C13.0513 3.98375 11.7388 3.5 10.5 3.5C9.61018 3.5008 8.74042 3.76455 8.00002 4.25813C7.13634 3.67898 6.09785 3.41888 5.06315 3.52256C4.02846 3.62625 3.06223 4.08724 2.33064 4.82625C1.89329 5.27274 1.55013 5.80258 1.32155 6.38429C1.09297 6.966 0.983626 7.58771 1.00002 8.2125C1.02455 9.26709 1.25905 10.3062 1.6898 11.2691C2.12056 12.232 2.73893 13.0994 3.50877 13.8206C3.97239 14.2587 4.58657 14.5019 5.22439 14.5H10.7044C11.0454 14.5006 11.3829 14.4313 11.6959 14.2961C12.009 14.161 12.291 13.963 12.5244 13.7144C12.9568 13.2491 13.3308 12.7327 13.6381 12.1769C14.0769 11.375 14.0206 11.25 13.9563 11.0994Z" fill="#E7F5FF"/>
</svg>
