<svg width="33" height="32" viewBox="0 0 33 32" fill="none" xmlns="http://www.w3.org/2000/svg">
<path d="M25.015 16C28.0962 11.6737 29.6675 7.2025 27.4825 5.0175C25.2975 2.8325 20.8263 4.40375 16.5 7.485C12.1737 4.40375 7.7025 2.8325 5.5175 5.0175C3.3325 7.2025 4.90375 11.6737 7.985 16C4.90375 20.3263 3.3325 24.7975 5.5175 26.9825C6.22125 27.6863 7.16125 28 8.25625 28C10.565 28 13.5662 26.6038 16.5063 24.515C19.4338 26.6038 22.4338 28 24.75 28C25.845 28 26.7863 27.685 27.4888 26.9825C29.6675 24.7975 28.0962 20.3263 25.015 16ZM26.0688 6.43125C27.0238 7.38625 26.3787 10.4813 23.7537 14.3413C22.9233 13.3132 22.0392 12.3298 21.105 11.395C20.1698 10.4625 19.1864 9.5796 18.1588 8.75C22.0188 6.125 25.1138 5.47625 26.0688 6.43125ZM6.93125 6.43125C7.20625 6.155 7.66 6.0125 8.25875 6.0125C9.73625 6.0125 12.095 6.875 14.84 8.75C13.813 9.5799 12.83 10.4628 11.895 11.395C10.9621 12.3299 10.0792 13.3133 9.25 14.3413C6.625 10.4813 5.97625 7.38625 6.93125 6.43125ZM6.93125 25.5688C5.97625 24.6138 6.625 21.5188 9.25 17.6588C10.0804 18.6868 10.9646 19.6702 11.8988 20.605C12.833 21.5371 13.8152 22.42 14.8413 23.25C10.9813 25.875 7.88625 26.5238 6.93125 25.5688ZM16.5 17.5C16.2033 17.5 15.9133 17.412 15.6666 17.2472C15.42 17.0824 15.2277 16.8481 15.1142 16.574C15.0006 16.2999 14.9709 15.9983 15.0288 15.7074C15.0867 15.4164 15.2296 15.1491 15.4393 14.9393C15.6491 14.7296 15.9164 14.5867 16.2074 14.5288C16.4983 14.4709 16.7999 14.5006 17.074 14.6142C17.3481 14.7277 17.5824 14.92 17.7472 15.1666C17.912 15.4133 18 15.7033 18 16C18 16.3978 17.842 16.7794 17.5607 17.0607C17.2794 17.342 16.8978 17.5 16.5 17.5ZM26.0688 25.57C25.1138 26.5262 22.0188 25.88 18.1588 23.255C19.1862 22.4239 20.1696 21.5398 21.105 20.6063C22.0379 19.671 22.9208 18.6871 23.75 17.6588C26.375 21.5188 27.0238 24.6138 26.0688 25.5688V25.57Z" fill="#E7F5FF"/>
</svg>
