<svg width="16" height="17" viewBox="0 0 16 17" fill="none" xmlns="http://www.w3.org/2000/svg">
<path d="M8 2C6.71442 2 5.45772 2.38122 4.3888 3.09545C3.31988 3.80968 2.48676 4.82484 1.99479 6.01256C1.50282 7.20028 1.37409 8.50721 1.6249 9.76809C1.8757 11.029 2.49477 12.1872 3.40381 13.0962C4.31285 14.0052 5.47104 14.6243 6.73192 14.8751C7.99279 15.1259 9.29973 14.9972 10.4874 14.5052C11.6752 14.0132 12.6903 13.1801 13.4046 12.1112C14.1188 11.0423 14.5 9.78558 14.5 8.5C14.5 6.77609 13.8152 5.12279 12.5962 3.90381C11.3772 2.68482 9.72391 2 8 2ZM8 13.5C7.18955 13.4999 6.39126 13.3028 5.6739 12.9257C4.95653 12.5486 4.34159 12.0027 3.88204 11.3351C3.42249 10.6676 3.1321 9.8983 3.03588 9.09358C2.93967 8.28886 3.04051 7.47281 3.32973 6.71571C3.61895 5.95862 4.08787 5.28318 4.69611 4.74756C5.30434 4.21194 6.03366 3.83221 6.82125 3.64106C7.60884 3.44991 8.4311 3.45308 9.21719 3.65029C10.0033 3.8475 10.7297 4.23284 11.3338 4.77313C11.4301 4.86219 11.4876 4.98558 11.4938 5.11667C11.5 5.24775 11.4545 5.37602 11.3669 5.4738C11.2794 5.57158 11.157 5.63103 11.026 5.63932C10.895 5.64762 10.766 5.60409 10.6669 5.51813C10.0003 4.92188 9.15307 4.56624 8.26061 4.50801C7.36815 4.44978 6.48192 4.69233 5.74349 5.1969C5.00506 5.70148 4.45703 6.43897 4.18694 7.29157C3.91685 8.14417 3.94029 9.06269 4.25352 9.90041C4.56674 10.7381 5.15167 11.4467 5.91488 11.913C6.67808 12.3792 7.57553 12.5762 8.46386 12.4726C9.35219 12.3689 10.1801 11.9705 10.8155 11.341C11.4508 10.7116 11.8569 9.88733 11.9688 9H8C7.86739 9 7.74022 8.94732 7.64645 8.85355C7.55268 8.75979 7.5 8.63261 7.5 8.5C7.5 8.36739 7.55268 8.24021 7.64645 8.14645C7.74022 8.05268 7.86739 8 8 8H12.5C12.6326 8 12.7598 8.05268 12.8536 8.14645C12.9473 8.24021 13 8.36739 13 8.5C12.9985 9.82563 12.4713 11.0965 11.5339 12.0339C10.5965 12.9712 9.32563 13.4985 8 13.5Z" fill="#E7F5FF"/>
</svg>
