<svg width="48" height="48" viewBox="0 0 48 48" fill="none" xmlns="http://www.w3.org/2000/svg">
<path d="M41.8969 7.51316C41.8755 7.14619 41.72 6.79987 41.4601 6.53995C41.2002 6.28002 40.8539 6.12459 40.4869 6.10316C26.2125 5.26503 14.7788 9.56253 9.90378 17.625C8.21396 20.383 7.38126 23.5807 7.51128 26.8125C7.59615 28.8792 8.01664 30.9184 8.75628 32.85C8.79974 32.9689 8.87258 33.0749 8.96802 33.158C9.06346 33.2412 9.17838 33.2988 9.3021 33.3256C9.42581 33.3523 9.55428 33.3473 9.67555 33.3111C9.79682 33.2748 9.90694 33.2084 9.99565 33.1182L25.9332 16.9369C26.0725 16.7975 26.238 16.687 26.4201 16.6116C26.6021 16.5361 26.7973 16.4973 26.9944 16.4973C27.1915 16.4973 27.3867 16.5361 27.5687 16.6116C27.7508 16.687 27.9163 16.7975 28.0557 16.9369C28.195 17.0763 28.3056 17.2417 28.381 17.4238C28.4564 17.6059 28.4952 17.8011 28.4952 17.9982C28.4952 18.1953 28.4564 18.3904 28.381 18.5725C28.3056 18.7546 28.195 18.92 28.0557 19.0594L10.6388 36.7388L7.97815 39.3994C7.70145 39.6688 7.53626 40.0324 7.51541 40.4181C7.49457 40.8037 7.6196 41.183 7.86565 41.4807C8.0004 41.6367 8.16588 41.7633 8.35174 41.8525C8.5376 41.9418 8.73987 41.9917 8.9459 41.9993C9.15194 42.0069 9.35732 41.9719 9.54923 41.8965C9.74114 41.8211 9.91545 41.707 10.0613 41.5613L13.2094 38.4132C15.8607 39.6957 18.5363 40.395 21.1894 40.4888C21.3982 40.4963 21.6063 40.5 21.8138 40.5C24.8352 40.5078 27.7992 39.6755 30.375 38.0963C38.4375 33.2213 42.7369 21.7894 41.8969 7.51316Z" fill="#0C3CFF"/>
</svg>
