<svg width="33" height="32" viewBox="0 0 33 32" fill="none" xmlns="http://www.w3.org/2000/svg">
<path d="M16 21.875C16.1511 21.9614 16.3222 22.0068 16.4963 22.0068C16.6703 22.0068 16.8414 21.9614 16.9925 21.875C17.2987 21.6988 24.4925 17.5 24.4925 10.0063C24.4297 7.92788 23.5601 5.95563 22.068 4.50742C20.5759 3.05921 18.5786 2.24884 16.4993 2.24803C14.42 2.24722 12.422 3.05603 10.9288 4.50307C9.4356 5.95011 8.56447 7.92168 8.5 10C8.5 17.5 15.6975 21.6925 16 21.875ZM16.5 7.00001C17.0933 7.00001 17.6734 7.17595 18.1667 7.5056C18.6601 7.83524 19.0446 8.30378 19.2716 8.85196C19.4987 9.40013 19.5581 10.0033 19.4424 10.5853C19.3266 11.1672 19.0409 11.7018 18.6213 12.1213C18.2018 12.5409 17.6672 12.8266 17.0853 12.9424C16.5033 13.0581 15.9001 12.9987 15.3519 12.7716C14.8038 12.5446 14.3352 12.1601 14.0056 11.6667C13.6759 11.1734 13.5 10.5934 13.5 10C13.5 9.20436 13.8161 8.4413 14.3787 7.87869C14.9413 7.31608 15.7044 7.00001 16.5 7.00001ZM30.5 23C30.5 26.8975 23.2863 29 16.5 29C9.71375 29 2.5 26.8975 2.5 23C2.5 21.1763 4.1525 19.5613 7.15375 18.4538C7.39987 18.3724 7.66795 18.3899 7.90147 18.5024C8.13499 18.6149 8.3157 18.8137 8.40551 19.0568C8.49531 19.3 8.48719 19.5685 8.38286 19.8058C8.27853 20.0431 8.08614 20.2306 7.84625 20.3288C5.7825 21.0925 4.5 22.115 4.5 23C4.5 24.67 9.065 27 16.5 27C23.935 27 28.5 24.67 28.5 23C28.5 22.115 27.2175 21.0925 25.1537 20.33C24.9139 20.2318 24.7215 20.0443 24.6171 19.807C24.5128 19.5697 24.5047 19.3012 24.5945 19.0581C24.6843 18.8149 24.865 18.6161 25.0985 18.5036C25.332 18.3911 25.6001 18.3737 25.8463 18.455C28.8475 19.5613 30.5 21.1763 30.5 23Z" fill="#0C3CFF"/>
</svg>
