<svg width="48" height="48" viewBox="0 0 48 48" fill="none" xmlns="http://www.w3.org/2000/svg">
<path d="M38.5144 29.8256C36.7161 30.9187 34.6507 31.4936 32.5462 31.4868C30.7832 31.4729 29.0401 31.1123 27.4162 30.4256C26.1647 32.1924 25.4949 34.3054 25.5 36.4706V42C25.5004 42.2056 25.4586 42.4091 25.3771 42.5979C25.2956 42.7867 25.1761 42.9567 25.0261 43.0974C24.8761 43.238 24.6988 43.3464 24.5052 43.4156C24.3116 43.4849 24.1058 43.5136 23.9006 43.5C23.515 43.4664 23.1564 43.2883 22.8967 43.0014C22.6369 42.7146 22.4952 42.3401 22.5 41.9531V39.6206L15.2587 32.3793C14.1823 32.7809 13.0439 32.991 11.895 33C10.3134 33.0039 8.76136 32.5711 7.40998 31.7493C3.32435 29.2668 1.12498 23.5537 1.5506 16.4606C1.57203 16.0936 1.72747 15.7473 1.98739 15.4874C2.24732 15.2275 2.59364 15.072 2.9606 15.0506C10.0537 14.6325 15.7669 16.8243 18.2419 20.91C19.2143 22.5114 19.6388 24.3859 19.4512 26.25C19.4396 26.3944 19.3863 26.5324 19.2979 26.6472C19.2095 26.762 19.0898 26.8487 18.9531 26.8969C18.8165 26.9451 18.6688 26.9527 18.5279 26.9187C18.3871 26.8848 18.259 26.8107 18.1594 26.7056L14.5594 22.9368C14.2758 22.6674 13.8981 22.5194 13.507 22.5244C13.1158 22.5294 12.7421 22.687 12.4655 22.9636C12.1889 23.2402 12.0313 23.614 12.0263 24.0051C12.0213 24.3962 12.1693 24.7739 12.4387 25.0575L22.5412 35.4168C22.5525 35.2706 22.5656 35.1243 22.5806 34.98C22.9086 32.1989 24.1358 29.601 26.0756 27.5812L35.5612 17.5575C35.8427 17.2762 36.0009 16.8947 36.0011 16.4969C36.0013 16.099 35.8434 15.7174 35.5622 15.4359C35.281 15.1544 34.8994 14.9962 34.5016 14.996C34.1037 14.9959 33.7221 15.1538 33.4406 15.435L24.2531 25.1512C24.1611 25.2486 24.0448 25.3196 23.9161 25.3568C23.7874 25.394 23.6511 25.3961 23.5213 25.3628C23.3916 25.3295 23.2731 25.2621 23.1782 25.1675C23.0833 25.0729 23.0155 24.9546 22.9819 24.825C22.0931 21.5475 22.485 18.285 24.1819 15.4837C27.5306 9.95621 35.3231 6.99746 45.0281 7.56746C45.3951 7.58889 45.7414 7.74433 46.0013 8.00425C46.2612 8.26418 46.4167 8.6105 46.4381 8.97746C47.0006 18.6843 44.0419 26.4768 38.5144 29.8256Z" fill="#E7F5FF"/>
</svg>
