<svg width="48" height="48" viewBox="0 0 48 48" fill="none" xmlns="http://www.w3.org/2000/svg">
<path d="M24 35.2219C24.481 35.5423 24.9821 35.8316 25.5 36.0881V43.5C25.5 43.8978 25.342 44.2794 25.0606 44.5607C24.7793 44.842 24.3978 45 24 45C23.6022 45 23.2206 44.842 22.9393 44.5607C22.658 44.2794 22.5 43.8978 22.5 43.5V36.0881C23.0179 35.8316 23.5189 35.5423 24 35.2219ZM37.1437 11.7356C36.0586 9.14484 34.2321 6.93251 31.8936 5.37659C29.555 3.82068 26.8088 2.99057 24 2.99057C21.1911 2.99057 18.4449 3.82068 16.1064 5.37659C13.7679 6.93251 11.9413 9.14484 10.8562 11.7356C8.51287 12.8067 6.5266 14.5285 5.1338 16.6962C3.74101 18.8638 3.00035 21.386 2.99998 23.9625C2.98123 31.125 8.99998 37.3125 16.1512 37.5C18.3508 37.5521 20.5299 37.0675 22.5 36.0881V29.4263L14.3287 25.3425C13.9727 25.1645 13.7019 24.8523 13.576 24.4747C13.4502 24.097 13.4795 23.6848 13.6575 23.3288C13.8355 22.9727 14.1477 22.702 14.5253 22.5761C14.903 22.4502 15.3152 22.4795 15.6712 22.6575L22.5 26.0738V16.5C22.5 16.1022 22.658 15.7207 22.9393 15.4393C23.2206 15.158 23.6022 15 24 15C24.3978 15 24.7793 15.158 25.0606 15.4393C25.342 15.7207 25.5 16.1022 25.5 16.5V21.5738L32.3287 18.1575C32.505 18.0694 32.697 18.0168 32.8936 18.0028C33.0902 17.9888 33.2876 18.0137 33.4746 18.0761C33.6616 18.1384 33.8345 18.237 33.9834 18.3661C34.1323 18.4952 34.2543 18.6525 34.3425 18.8288C34.4306 19.0051 34.4832 19.197 34.4972 19.3936C34.5111 19.5902 34.4863 19.7877 34.4239 19.9747C34.3616 20.1616 34.263 20.3345 34.1339 20.4834C34.0047 20.6323 33.8475 20.7544 33.6712 20.8425L25.5 24.9263V36.0881C27.3647 37.0141 29.418 37.4972 31.5 37.5H31.8412C39 37.3125 45.0206 31.125 45 23.9625C44.9996 21.386 44.259 18.8638 42.8662 16.6962C41.4734 14.5285 39.4871 12.8067 37.1437 11.7356Z" fill="#0C3CFF"/>
</svg>
